<svg xmlns="http://www.w3.org/2000/svg" viewBox="0 0 128 128">
    <circle cx="64" cy="64" r="62" fill="#FBF0DF" />
    <path
        fill="#14151A"
        d="M97.3 52.1c-.7-.3-1.5-.5-2.3-.5-3 0-5.5 2.5-5.5 5.5v12.4c0 2.2-1.8 4-4 4s-4-1.8-4-4V56.1c0-3-2.5-5.5-5.5-5.5s-5.5 2.5-5.5 5.5v13.4c0 2.2-1.8 4-4 4s-4-1.8-4-4V56.1c0-3-2.5-5.5-5.5-5.5-1.5 0-2.9.6-3.9 1.6-.5.5-1 1.1-1.3 1.8l-13.8 28.3c-.8 1.7-.2 3.7 1.5 4.5.5.2 1 .4 1.5.4 1.3 0 2.5-.7 3.1-2l2.9-6.1h33.4l2.9 6.1c.6 1.2 1.8 2 3.1 2 .5 0 1-.1 1.5-.4 1.7-.8 2.4-2.8 1.5-4.5l-13.8-28.3c-.7-1.4-1.8-2.6-3.2-3.3z"
    />
</svg>
