<svg
    role="img"
    viewBox="0 0 24 24"
    xmlns="http://www.w3.org/2000/svg"
    id="K6--Streamline-Simple-Icons"
    height="24"
    width="24"
>
    <desc>K6 Streamline Icon: https://streamlinehq.com</desc>
    <title>k6</title>
    <path
        d="M24 23.646H0L7.99 6.603l4.813 3.538L19.08 0.354Zm-8.8 -3.681h0.052a2.292 2.292 0 0 0 1.593 -0.64 2.088 2.088 0 0 0 0.685 -1.576 1.912 1.912 0 0 0 -0.66 -1.511 2.008 2.008 0 0 0 -1.37 -0.59h-0.04a0.716 0.716 0 0 0 -0.199 0.027l1.267 -1.883 -1.01 -0.705 -0.477 0.705 -1.22 1.864c-0.21 0.31 -0.386 0.582 -0.495 0.77 -0.112 0.2 -0.21 0.41 -0.29 0.625a1.942 1.942 0 0 0 -0.138 0.719 2.086 2.086 0 0 0 0.676 1.558c0.422 0.411 0.989 0.641 1.578 0.64Zm-5.365 -2.027 1.398 1.978h1.496l-1.645 -2.295 1.46 -2.029 -0.97 -0.671 -0.427 0.565 -1.314 1.853v-3.725l-1.31 -1.068v7.37h1.31v-1.98Zm5.367 0.792a0.963 0.963 0 1 1 0 -1.927h0.009a0.941 0.941 0 0 1 0.679 0.29 0.897 0.897 0 0 1 0.29 0.668 0.978 0.978 0 0 1 -0.977 0.967Z"
        fill="#000000"
        stroke-width="1"
    ></path>
</svg>
